<svg xmlns="http://www.w3.org/2000/svg" version="1.1" xmlns:xlink="http://www.w3.org/1999/xlink" xmlns:svgjs="http://svgjs.dev/svgjs" width="2000" height="1247" viewBox="0 0 2000 1247"><g transform="matrix(1,0,0,1,-1.2121212121212466,0.504858299595071)"><svg viewBox="0 0 396 247" data-background-color="#ffffff" preserveAspectRatio="xMidYMid meet" height="1247" width="2000" xmlns="http://www.w3.org/2000/svg" xmlns:xlink="http://www.w3.org/1999/xlink"><g id="tight-bounds" transform="matrix(1,0,0,1,0.2400000000000091,-0.09999999999999432)"><svg viewBox="0 0 395.52 247.2" height="247.2" width="395.52"><g><svg></svg></g><g><svg viewBox="0 0 395.52 247.2" height="247.2" width="395.52"><mask id="ae8a1a90-f3fb-47a1-a71f-552611c41a98"><rect width="640" height="400" fill="white"></rect><g transform="matrix(1,0,0,1,39.55199999999999,84.71612737497088)"><svg viewBox="0 0 316.416 77.76774525005824" height="77.76774525005824" width="316.416"><g><svg viewBox="0 0 316.416 77.76774525005824" height="77.76774525005824" width="316.416"><g><svg viewBox="0 0 316.416 77.76774525005824" height="77.76774525005824" width="316.416"><g><svg viewBox="0 0 316.416 77.76774525005824" height="77.76774525005824" width="316.416"><g id="SvgjsG1033"><svg viewBox="0 0 316.416 77.76774525005824" height="77.76774525005824" width="316.416" id="SvgjsSvg1032"><g><svg viewBox="0 0 316.416 77.76774525005824" height="77.76774525005824" width="316.416"><g transform="matrix(1,0,0,1,0,0)"><svg width="316.416" viewBox="-2.49 -41.55 177.08 44.28" height="77.76774525005824" data-palette-color="#aa10ba"><path d="M36.87-22.02L36.87-22.02Q36.87-17.92 36.57-13.87 36.28-9.81 35.99-5.76L35.99-5.76Q30.52-5.27 25.1-4.93 19.68-4.59 14.21-4.59L14.21-4.59Q13.72-4.59 12.4-4.61 11.08-4.64 9.62-4.71 8.15-4.79 6.84-4.91 5.52-5.03 5.08-5.27L5.08-5.27Q3.47-6.15 2.83-7.5 2.2-8.84 2.2-10.55L2.2-10.55Q2.2-11.13 2.25-12.11 2.29-13.09 2.44-14.16 2.59-15.23 2.83-16.16 3.08-17.09 3.42-17.53L3.42-17.53Q3.86-18.12 5.42-18.53 6.98-18.95 9.16-19.19 11.33-19.43 13.84-19.58 16.36-19.73 18.65-19.8 20.95-19.87 22.75-19.87 24.56-19.87 25.34-19.87L25.34-19.87Q25.49-20.95 25.49-21.97L25.49-21.97Q25.49-22.07 25.49-22.49 25.49-22.9 25.44-23L25.44-23Q25.29-23.29 24.51-23.49 23.73-23.68 22.58-23.78 21.44-23.88 20.09-23.95 18.75-24.02 17.48-24.02 16.21-24.02 15.23-24.02 14.26-24.02 13.82-24.02L13.82-24.02Q10.74-24.02 7.67-23.9 4.59-23.78 1.51-23.68L1.51-23.68Q1.71-25.54 1.83-27.44 1.95-29.35 1.86-31.2L1.86-31.2Q5.42-31.84 9.01-32.1 12.6-32.37 16.26-32.37L16.26-32.37Q17.58-32.37 19.14-32.35 20.7-32.32 22.27-32.25 23.83-32.18 25.37-32.03 26.9-31.88 28.22-31.64L28.22-31.64Q29.59-31.4 30.93-30.76 32.28-30.13 33.45-29.2 34.62-28.27 35.5-27.08 36.38-25.88 36.77-24.51L36.77-24.51Q36.82-24.37 36.84-24.02 36.87-23.68 36.87-23.27 36.87-22.85 36.87-22.51 36.87-22.17 36.87-22.02ZM25.98-10.55L25.98-10.55 25.98-16.8Q24.56-16.85 23.14-16.87 21.73-16.89 20.31-16.89L20.31-16.89Q20.02-16.89 18.68-16.87 17.33-16.85 15.8-16.75 14.26-16.65 12.99-16.5 11.72-16.36 11.52-16.06L11.52-16.06Q11.28-15.67 11.21-15.26 11.13-14.84 11.13-14.4L11.13-14.4Q11.13-14.06 11.18-13.48 11.23-12.89 11.35-12.26 11.47-11.62 11.62-11.08 11.77-10.55 12.01-10.3L12.01-10.3Q12.21-10.06 12.67-9.94 13.13-9.81 13.67-9.74 14.21-9.67 14.75-9.64 15.28-9.62 15.58-9.62L15.58-9.62Q16.75-9.62 18.09-9.72 19.43-9.81 20.83-9.94 22.22-10.06 23.54-10.23 24.85-10.4 25.98-10.55ZM41.6-36.52L52.49-37.55Q52.1-32.81 51.73-28.13 51.36-23.44 51.12-18.7L51.12-18.7Q50.88-14.4 50.61-10.18 50.34-5.96 50.1-1.66L50.1-1.66 42.62-1.27Q42.62-5.71 42.65-10.08 42.67-14.45 42.58-18.9L42.58-18.9Q42.48-23.34 42.19-27.71 41.89-32.08 41.6-36.52L41.6-36.52ZM65.28-32.67L65.28-32.67Q65.28-31.69 64.86-30.83 64.45-29.98 63.74-29.35 63.03-28.71 62.15-28.34 61.27-27.98 60.4-27.98L60.4-27.98Q59.42-27.98 58.56-28.42 57.71-28.86 57.08-29.54 56.44-30.22 56.1-31.13 55.76-32.03 55.76-32.96L55.76-32.96Q55.76-33.89 56.12-34.69 56.49-35.5 57.1-36.08 57.71-36.67 58.52-37.01 59.32-37.35 60.25-37.35L60.25-37.35Q61.18-37.35 62.08-36.99 62.98-36.62 63.69-35.96 64.4-35.3 64.84-34.45 65.28-33.59 65.28-32.67ZM67.28-24.37L67.28-24.37Q67.04-21.78 66.89-19.24 66.74-16.7 66.6-14.16L66.6-14.16Q66.4-11.18 65.94-8.25 65.47-5.32 64.89-2.39L64.89-2.39 57.42-1.61Q57.42-3.17 57.44-4.69 57.47-6.2 57.47-7.76L57.47-7.76Q57.47-11.77 57.32-15.77 57.17-19.78 57.03-23.78L57.03-23.78Q59.61-23.88 62.13-24.07 64.64-24.27 67.28-24.37ZM106-18.12L106-18.12Q99.6-17.77 93.25-17.55 86.91-17.33 80.51-17.09L80.51-17.09Q80.46-16.89 80.46-16.7 80.46-16.5 80.46-16.31L80.46-16.31Q80.46-14.65 81.22-13.77 81.97-12.89 83.1-12.52 84.22-12.16 85.59-12.11 86.96-12.06 88.13-12.06L88.13-12.06Q91.4-12.06 94.67-12.28 97.94-12.5 101.26-12.74L101.26-12.74 101.65-4.98Q98.43-4.83 95.23-4.74 92.03-4.64 88.81-4.64L88.81-4.64Q88.13-4.64 86.3-4.66 84.47-4.69 82.39-4.81 80.31-4.93 78.51-5.13 76.7-5.32 76.12-5.66L76.12-5.66Q74.6-6.54 73.75-7.91 72.89-9.28 72.43-10.89 71.97-12.5 71.79-14.18 71.62-15.87 71.57-17.43L71.57-17.43Q71.53-17.68 71.55-17.94 71.57-18.21 71.57-18.46L71.57-18.46Q71.57-21.04 72.14-23.27 72.7-25.49 74.21-27.59L74.21-27.59Q75.24-29.05 77.24-30.03 79.24-31.01 81.58-31.57 83.93-32.13 86.27-32.35 88.62-32.57 90.32-32.57L90.32-32.57Q91.84-32.57 94.04-32.3 96.23-32.03 98.41-31.4 100.58-30.76 102.34-29.76 104.09-28.76 104.73-27.29L104.73-27.29Q104.83-27 104.95-26.29 105.07-25.59 105.22-24.68 105.36-23.78 105.49-22.75 105.61-21.73 105.71-20.8 105.8-19.87 105.88-19.14 105.95-18.41 106-18.12ZM83.05-21.14L99.36-21.68Q99.06-23.83 98.26-25.07 97.45-26.32 96.26-26.93 95.06-27.54 93.52-27.71 91.98-27.88 90.23-27.88L90.23-27.88Q89.64-27.88 88.76-27.86 87.88-27.83 87-27.71 86.13-27.59 85.34-27.34 84.56-27.1 84.12-26.66L84.12-26.66Q83.78-26.37 83.56-25.85 83.34-25.34 83.2-24.76 83.05-24.17 82.98-23.61 82.9-23.05 82.9-22.66L82.9-22.66Q82.9-21.88 83.05-21.14L83.05-21.14ZM138.27-14.5L138.27-14.5Q138.27-13.18 138.27-11.84 138.27-10.5 138.17-9.18L138.17-9.18 127.28-8.5Q127.48-11.04 127.6-13.53 127.72-16.02 127.72-18.6L127.72-18.6Q127.72-18.85 127.72-19.43 127.72-20.02 127.68-20.68 127.63-21.34 127.58-21.92 127.53-22.51 127.48-22.75L127.48-22.75Q127.24-23.44 126.97-23.93 126.7-24.41 126.33-24.71 125.97-25 125.43-25.12 124.89-25.24 124.11-25.24L124.11-25.24Q123.53-25.24 122.62-25.15 121.72-25.05 120.79-24.85 119.86-24.66 119.03-24.37 118.2-24.07 117.86-23.68L117.86-23.68 117.76-9.28Q117.67-9.47 117.2-9.47 116.74-9.47 116.54-9.47L116.54-9.47Q115.08-9.47 113.52-9.35 111.95-9.23 110.49-9.03L110.49-9.03Q109.85-14.79 109.37-20.51 108.88-26.22 108.24-31.98L108.24-31.98Q109.22-32.03 110.2-32.06 111.17-32.08 112.15-32.08L112.15-32.08Q113.42-32.08 114.71-32.01 116.01-31.93 117.28-31.88L117.28-31.88 117.62-28.13Q118.98-30.37 121.33-31.88 123.67-33.4 126.36-33.4L126.36-33.4Q127.72-33.4 129.19-33.25 130.65-33.11 132-32.67 133.34-32.23 134.54-31.45 135.73-30.66 136.56-29.44L136.56-29.44Q136.95-28.86 137.22-27.71 137.49-26.56 137.69-25.12 137.88-23.68 138-22.07 138.12-20.46 138.17-18.99 138.22-17.53 138.25-16.33 138.27-15.14 138.27-14.5ZM170.59-33.89L170.59-33.89 170.3-27.54Q168.79-27.64 167.27-27.69 165.76-27.73 164.25-27.73L164.25-27.73Q163.61-27.73 162.44-27.71 161.27-27.69 159.83-27.64 158.39-27.59 156.87-27.49 155.36-27.39 154.09-27.29 152.82-27.2 151.94-27.05 151.06-26.9 150.87-26.76L150.87-26.76Q150.23-26.12 150.23-25.29L150.23-25.29Q150.23-24.76 150.52-24.41L150.52-24.41Q150.62-24.27 151.6-24.17 152.58-24.07 153.99-24 155.41-23.93 157.09-23.9 158.78-23.88 160.31-23.85 161.85-23.83 163.05-23.78 164.25-23.73 164.73-23.68L164.73-23.68Q166.59-23.44 167.69-22.61 168.79-21.78 169.37-20.53 169.96-19.29 170.13-17.72 170.3-16.16 170.3-14.55L170.3-14.55Q170.3-13.77 170.18-12.7 170.06-11.62 169.81-10.55 169.57-9.47 169.1-8.54 168.64-7.62 168.01-7.08L168.01-7.08Q167.27-6.49 165.64-6.1 164-5.71 162.12-5.47 160.24-5.22 158.48-5.13 156.73-5.03 155.8-5.03L155.8-5.03Q152.58-5.03 149.35-5.4 146.13-5.76 142.96-6.2L142.96-6.2 142.96-15.53Q146.03-14.89 149.13-14.79 152.23-14.7 155.36-14.45L155.36-14.45Q155.99-14.4 157.29-14.38 158.58-14.36 159.9-14.43 161.22-14.5 162.29-14.75 163.37-14.99 163.61-15.43L163.61-15.43Q163.71-15.58 163.71-15.77 163.71-15.97 163.71-16.11L163.71-16.11Q163.71-16.5 163.63-17.11 163.56-17.72 163.32-18.07L163.32-18.07Q163.27-18.12 162.98-18.14 162.68-18.16 162.63-18.16L162.63-18.16Q159.9-18.31 157.17-18.33 154.43-18.36 151.65-18.6L151.65-18.6Q150.52-18.7 149.38-18.82 148.23-18.95 147.11-19.19L147.11-19.19Q146.18-19.38 145.42-19.63 144.67-19.87 144.1-20.26 143.54-20.65 143.15-21.26 142.76-21.88 142.61-22.9L142.61-22.9Q142.52-23.24 142.52-23.56 142.52-23.88 142.52-24.27L142.52-24.27Q142.52-25.15 142.61-26.27 142.71-27.39 142.98-28.52 143.25-29.64 143.66-30.64 144.08-31.64 144.76-32.28L144.76-32.28Q145.2-32.71 146.33-33.01 147.45-33.3 148.91-33.52 150.38-33.74 152.04-33.89 153.7-34.03 155.24-34.11 156.77-34.18 158.02-34.2 159.26-34.23 159.9-34.23L159.9-34.23Q162.63-34.23 165.3-34.13 167.96-34.03 170.59-33.89Z" opacity="1" transform="matrix(1,0,0,1,0,0)" fill="black" class="wordmark-text-0" id="SvgjsPath1031" stroke-width="7" stroke="black" stroke-linejoin="round"></path></svg></g></svg></g></svg></g></svg></g></svg></g></svg></g></svg></g></mask><g transform="matrix(1,0,0,1,39.55199999999999,84.71612737497088)"><svg viewBox="0 0 316.416 77.76774525005824" height="77.76774525005824" width="316.416"><g><svg viewBox="0 0 316.416 77.76774525005824" height="77.76774525005824" width="316.416"><g><svg viewBox="0 0 316.416 77.76774525005824" height="77.76774525005824" width="316.416"><g><svg viewBox="0 0 316.416 77.76774525005824" height="77.76774525005824" width="316.416"><g id="textblocktransform"><svg viewBox="0 0 316.416 77.76774525005824" height="77.76774525005824" width="316.416" id="textblock"><g><svg viewBox="0 0 316.416 77.76774525005824" height="77.76774525005824" width="316.416"><g transform="matrix(1,0,0,1,0,0)"><svg width="316.416" viewBox="-2.49 -41.55 177.08 44.28" height="77.76774525005824" data-palette-color="#aa10ba"><path d="M36.87-22.02L36.87-22.02Q36.87-17.92 36.57-13.87 36.28-9.81 35.99-5.76L35.99-5.76Q30.52-5.27 25.1-4.93 19.68-4.59 14.21-4.59L14.21-4.59Q13.72-4.59 12.4-4.61 11.08-4.64 9.62-4.71 8.15-4.79 6.84-4.91 5.52-5.03 5.08-5.27L5.08-5.27Q3.47-6.15 2.83-7.5 2.2-8.84 2.2-10.55L2.2-10.55Q2.2-11.13 2.25-12.11 2.29-13.09 2.44-14.16 2.59-15.23 2.83-16.16 3.08-17.09 3.42-17.53L3.42-17.53Q3.86-18.12 5.42-18.53 6.98-18.95 9.16-19.19 11.33-19.43 13.84-19.58 16.36-19.73 18.65-19.8 20.95-19.87 22.75-19.87 24.56-19.87 25.34-19.87L25.34-19.87Q25.49-20.95 25.49-21.97L25.49-21.97Q25.49-22.07 25.49-22.49 25.49-22.9 25.44-23L25.44-23Q25.29-23.29 24.51-23.49 23.73-23.68 22.58-23.78 21.44-23.88 20.09-23.95 18.75-24.02 17.48-24.02 16.21-24.02 15.23-24.02 14.26-24.02 13.82-24.02L13.82-24.02Q10.74-24.02 7.67-23.9 4.59-23.78 1.51-23.68L1.51-23.68Q1.71-25.54 1.83-27.44 1.95-29.35 1.86-31.2L1.86-31.2Q5.42-31.84 9.01-32.1 12.6-32.37 16.26-32.37L16.26-32.37Q17.58-32.37 19.14-32.35 20.7-32.32 22.27-32.25 23.83-32.18 25.37-32.03 26.9-31.88 28.22-31.64L28.22-31.64Q29.59-31.4 30.93-30.76 32.28-30.13 33.45-29.2 34.62-28.27 35.5-27.08 36.38-25.88 36.77-24.51L36.77-24.51Q36.82-24.37 36.84-24.02 36.87-23.68 36.87-23.27 36.87-22.85 36.87-22.51 36.87-22.17 36.87-22.02ZM25.98-10.55L25.98-10.55 25.98-16.8Q24.56-16.85 23.14-16.87 21.73-16.89 20.31-16.89L20.31-16.89Q20.02-16.89 18.68-16.87 17.33-16.85 15.8-16.75 14.26-16.65 12.99-16.5 11.72-16.36 11.52-16.06L11.52-16.06Q11.28-15.67 11.21-15.26 11.13-14.84 11.13-14.4L11.13-14.4Q11.13-14.06 11.18-13.48 11.23-12.89 11.35-12.26 11.47-11.62 11.62-11.08 11.77-10.55 12.01-10.3L12.01-10.3Q12.21-10.06 12.67-9.94 13.13-9.81 13.67-9.74 14.21-9.67 14.75-9.64 15.28-9.62 15.58-9.62L15.58-9.62Q16.75-9.62 18.09-9.72 19.43-9.81 20.83-9.94 22.22-10.06 23.54-10.23 24.85-10.4 25.98-10.55ZM41.6-36.52L52.49-37.55Q52.1-32.81 51.73-28.13 51.36-23.44 51.12-18.7L51.12-18.7Q50.88-14.4 50.61-10.18 50.34-5.96 50.1-1.66L50.1-1.66 42.62-1.27Q42.62-5.71 42.65-10.08 42.67-14.45 42.58-18.9L42.58-18.9Q42.48-23.34 42.19-27.71 41.89-32.08 41.6-36.52L41.6-36.52ZM65.28-32.67L65.28-32.67Q65.28-31.69 64.86-30.83 64.45-29.98 63.74-29.35 63.03-28.71 62.15-28.34 61.27-27.98 60.4-27.98L60.4-27.98Q59.42-27.98 58.56-28.42 57.71-28.86 57.08-29.54 56.44-30.22 56.1-31.13 55.76-32.03 55.76-32.96L55.76-32.96Q55.76-33.89 56.12-34.69 56.49-35.5 57.1-36.08 57.71-36.67 58.52-37.01 59.32-37.35 60.25-37.35L60.25-37.35Q61.18-37.35 62.08-36.99 62.98-36.62 63.69-35.96 64.4-35.3 64.84-34.45 65.28-33.59 65.28-32.67ZM67.28-24.37L67.28-24.37Q67.04-21.78 66.89-19.24 66.74-16.7 66.6-14.16L66.6-14.16Q66.4-11.18 65.94-8.25 65.47-5.32 64.89-2.39L64.89-2.39 57.42-1.61Q57.42-3.17 57.44-4.69 57.47-6.2 57.47-7.76L57.47-7.76Q57.47-11.77 57.32-15.77 57.17-19.78 57.03-23.78L57.03-23.78Q59.61-23.88 62.13-24.07 64.64-24.27 67.28-24.37ZM106-18.12L106-18.12Q99.6-17.77 93.25-17.55 86.91-17.33 80.51-17.09L80.51-17.09Q80.46-16.89 80.46-16.7 80.46-16.5 80.46-16.31L80.46-16.31Q80.46-14.65 81.22-13.77 81.97-12.89 83.1-12.52 84.22-12.16 85.59-12.11 86.96-12.06 88.13-12.06L88.13-12.06Q91.4-12.06 94.67-12.28 97.94-12.5 101.26-12.74L101.26-12.74 101.65-4.98Q98.43-4.83 95.23-4.74 92.03-4.64 88.81-4.64L88.81-4.64Q88.13-4.64 86.3-4.66 84.47-4.69 82.39-4.81 80.31-4.93 78.51-5.13 76.7-5.32 76.12-5.66L76.12-5.66Q74.6-6.54 73.75-7.91 72.89-9.28 72.43-10.89 71.97-12.5 71.79-14.18 71.62-15.87 71.57-17.43L71.57-17.43Q71.53-17.68 71.55-17.94 71.57-18.21 71.57-18.46L71.57-18.46Q71.57-21.04 72.14-23.27 72.7-25.49 74.21-27.59L74.21-27.59Q75.24-29.05 77.24-30.03 79.24-31.01 81.58-31.57 83.93-32.13 86.27-32.35 88.62-32.57 90.32-32.57L90.32-32.57Q91.84-32.57 94.04-32.3 96.23-32.03 98.41-31.4 100.58-30.76 102.34-29.76 104.09-28.76 104.73-27.29L104.73-27.29Q104.83-27 104.95-26.29 105.07-25.59 105.22-24.68 105.36-23.78 105.49-22.75 105.61-21.73 105.71-20.8 105.8-19.87 105.88-19.14 105.95-18.41 106-18.12ZM83.05-21.14L99.36-21.68Q99.06-23.83 98.26-25.07 97.45-26.32 96.26-26.93 95.06-27.54 93.52-27.71 91.98-27.88 90.23-27.88L90.23-27.88Q89.64-27.88 88.76-27.86 87.88-27.83 87-27.71 86.13-27.59 85.34-27.34 84.56-27.1 84.12-26.66L84.12-26.66Q83.78-26.37 83.56-25.85 83.34-25.34 83.2-24.76 83.05-24.17 82.98-23.61 82.9-23.05 82.9-22.66L82.9-22.66Q82.9-21.88 83.05-21.14L83.05-21.14ZM138.27-14.5L138.27-14.5Q138.27-13.18 138.27-11.84 138.27-10.5 138.17-9.18L138.17-9.18 127.28-8.5Q127.48-11.04 127.6-13.53 127.72-16.02 127.72-18.6L127.72-18.6Q127.72-18.85 127.72-19.43 127.72-20.02 127.68-20.68 127.63-21.34 127.58-21.92 127.53-22.51 127.48-22.75L127.48-22.75Q127.24-23.44 126.97-23.93 126.7-24.41 126.33-24.71 125.97-25 125.43-25.12 124.89-25.24 124.11-25.24L124.11-25.24Q123.53-25.24 122.62-25.15 121.72-25.05 120.79-24.85 119.86-24.66 119.03-24.37 118.2-24.07 117.86-23.68L117.86-23.68 117.76-9.28Q117.67-9.47 117.2-9.47 116.74-9.47 116.54-9.47L116.54-9.47Q115.08-9.47 113.52-9.35 111.95-9.23 110.49-9.03L110.49-9.03Q109.85-14.79 109.37-20.51 108.88-26.22 108.24-31.98L108.24-31.98Q109.22-32.03 110.2-32.06 111.17-32.08 112.15-32.08L112.15-32.08Q113.42-32.08 114.71-32.01 116.01-31.93 117.28-31.88L117.28-31.88 117.62-28.13Q118.98-30.37 121.33-31.88 123.67-33.4 126.36-33.4L126.36-33.4Q127.72-33.4 129.19-33.25 130.65-33.11 132-32.67 133.34-32.23 134.54-31.45 135.73-30.66 136.56-29.44L136.56-29.44Q136.95-28.86 137.22-27.71 137.49-26.56 137.69-25.12 137.88-23.68 138-22.07 138.12-20.46 138.17-18.99 138.22-17.53 138.25-16.33 138.27-15.14 138.27-14.5ZM170.59-33.89L170.59-33.89 170.3-27.54Q168.79-27.64 167.27-27.69 165.76-27.73 164.25-27.73L164.25-27.73Q163.61-27.73 162.44-27.71 161.27-27.69 159.83-27.64 158.39-27.59 156.87-27.49 155.36-27.39 154.09-27.29 152.82-27.2 151.94-27.05 151.06-26.9 150.87-26.76L150.87-26.76Q150.23-26.12 150.23-25.29L150.23-25.29Q150.23-24.76 150.52-24.41L150.52-24.41Q150.62-24.27 151.6-24.17 152.58-24.07 153.99-24 155.41-23.93 157.09-23.9 158.78-23.88 160.31-23.85 161.85-23.83 163.05-23.78 164.25-23.73 164.73-23.68L164.73-23.68Q166.59-23.44 167.69-22.61 168.79-21.78 169.37-20.53 169.96-19.29 170.13-17.72 170.3-16.16 170.3-14.55L170.3-14.55Q170.3-13.77 170.18-12.7 170.06-11.62 169.81-10.55 169.57-9.47 169.1-8.54 168.64-7.62 168.01-7.08L168.01-7.08Q167.27-6.49 165.64-6.1 164-5.71 162.12-5.47 160.24-5.22 158.48-5.13 156.73-5.03 155.8-5.03L155.8-5.03Q152.58-5.03 149.35-5.4 146.13-5.76 142.96-6.2L142.96-6.2 142.96-15.53Q146.03-14.89 149.13-14.79 152.23-14.7 155.36-14.45L155.36-14.45Q155.99-14.4 157.29-14.38 158.58-14.36 159.9-14.43 161.22-14.5 162.29-14.75 163.37-14.99 163.61-15.43L163.61-15.43Q163.71-15.58 163.71-15.77 163.71-15.97 163.71-16.11L163.71-16.11Q163.71-16.5 163.63-17.11 163.56-17.72 163.32-18.07L163.32-18.07Q163.27-18.12 162.98-18.14 162.68-18.16 162.63-18.16L162.63-18.16Q159.9-18.31 157.17-18.33 154.43-18.36 151.65-18.6L151.65-18.6Q150.52-18.7 149.38-18.82 148.23-18.95 147.11-19.19L147.11-19.19Q146.18-19.38 145.42-19.63 144.67-19.87 144.1-20.26 143.54-20.65 143.15-21.26 142.76-21.88 142.61-22.9L142.61-22.9Q142.52-23.24 142.52-23.56 142.52-23.88 142.52-24.27L142.52-24.27Q142.52-25.15 142.61-26.27 142.71-27.39 142.98-28.52 143.25-29.64 143.66-30.64 144.08-31.64 144.76-32.28L144.76-32.28Q145.2-32.71 146.33-33.01 147.45-33.3 148.91-33.52 150.38-33.74 152.04-33.89 153.7-34.03 155.24-34.11 156.77-34.18 158.02-34.2 159.26-34.23 159.9-34.23L159.9-34.23Q162.63-34.23 165.3-34.13 167.96-34.03 170.59-33.89Z" opacity="1" transform="matrix(1,0,0,1,0,0)" fill="#aa10ba" class="wordmark-text-0" data-fill-palette-color="primary" id="text-0"></path></svg></g></svg></g></svg></g></svg></g></svg></g></svg></g></svg></g><g mask="url(#ae8a1a90-f3fb-47a1-a71f-552611c41a98)"><g transform="matrix(3.3634193849277105, 0, 0, 3.3634193849277105, 34.09937614880255, 0.9999999999999858)"><svg xmlns:x="http://ns.adobe.com/Extensibility/1.0/" xmlns:i="http://ns.adobe.com/AdobeIllustrator/10.0/" xmlns:graph="http://ns.adobe.com/Graphs/1.0/" xmlns="http://www.w3.org/2000/svg" xmlns:xlink="http://www.w3.org/1999/xlink" xmlns:a="http://ns.adobe.com/AdobeSVGViewerExtensions/3.0/" version="1.0" x="0" y="0" viewBox="1.342 11.921999999999997 97.31799999999998 72.90200000000002" enable-background="new 0 0 100 100" xml:space="preserve" height="72.90200000000002" width="97.31799999999998" class="icon-none" data-fill-palette-color="accent" id="none"><g fill="#1a6fe9" data-fill-palette-color="accent"><polygon points="48.727,71.584 48.727,63.643 45.259,70.402  " fill="#1a6fe9" data-fill-palette-color="accent"></polygon><polygon points="51.431,63.475 51.431,71.613 54.985,70.402  " fill="#1a6fe9" data-fill-palette-color="accent"></polygon><path d="M50.713 77.372c0.126-0.148 0.211-0.334 0.211-0.544v-2.722l6.25-2.129c0.232-0.08 0.419-0.254 0.512-0.482 0.091-0.229 0.08-0.484-0.032-0.702l-6.721-13.104c0-0.001-0.001-0.001-0.001-0.002l-0.007-0.016V54.67c0-0.467-0.379-0.845-0.845-0.845-0.467 0-0.846 0.378-0.846 0.845v3.17l-6.643 12.953c-0.113 0.218-0.125 0.474-0.032 0.702 0.092 0.229 0.279 0.402 0.511 0.482l6.164 2.101v2.75c0 0.21 0.084 0.396 0.211 0.544v4.455h-5.046c1.006 1.769 3.192 2.997 5.731 2.997 2.541 0 4.727-1.229 5.732-2.997h-5.149V77.372zM50.924 61.375l4.778 9.318-4.778 1.629V61.375zM49.233 72.293l-4.693-1.6 4.693-9.151V72.293z" fill="#1a6fe9" data-fill-palette-color="accent"></path><path d="M53.265 29.908l-0.337-3.534h-5.925l-0.336 3.534h-6.315l5.757 5.854-1.34 14.05h5.197 5.196l-1.339-14.05 5.756-5.854H53.265zM46.847 37.876l0.78-10.566h4.675l0.78 10.566H46.847z" fill="#1a6fe9" data-fill-palette-color="accent"></path><circle cx="71.174" cy="40.37" r="1.1" fill="#1a6fe9" data-fill-palette-color="accent"></circle><circle cx="31.305" cy="18.211" r="1.5" fill="#1a6fe9" data-fill-palette-color="accent"></circle><circle cx="50.081" cy="16.15" r="1.2" fill="#1a6fe9" data-fill-palette-color="accent"></circle><path d="M93.352 81.827l-2.264-4.831c0.053-0.187 0.05-0.391-0.04-0.581l-9.148-19.523-9.113-4.064V52.27h-4.093-5.148v-1.208h1.198v-0.364h6.61l5.352-3.066v-2.519-4.45-2.52l-5.352-2.727h-6.61V24.121l-2.641-2.561h-9.082v-1.465h1.783v-1.181h-1.548c0.648-0.743 1.055-1.702 1.055-2.763 0-2.333-1.897-4.229-4.23-4.229-2.332 0-4.229 1.897-4.229 4.229 0 1.061 0.406 2.021 1.054 2.763h-1.499v1.181h1.759v1.465h-9.102l-0.047 0.046h-4.324c1.067-0.754 1.771-1.991 1.771-3.395 0-2.294-1.867-4.16-4.16-4.16s-4.16 1.866-4.16 4.16c0 2.149 1.645 3.902 3.739 4.117v2.089h-0.862v1.984h2.592v-1.984h-0.886v-1.708l3.697 2.089v13.16h-4.601l-0.852 0.38 0.526-2.369h-2.062l0.652 2.762-1.193 0.532v0.668l-2.13-0.474v2.062l2.13-0.503v0.635l1.259 0.357-0.639 2.877h2.062l-0.626-2.651 5.474 1.555v7.271h1.199v1.208h-5.149-4.093v0.484l-9.28 4.138L8.953 76.415c-0.089 0.19-0.091 0.395-0.04 0.581l-2.264 4.831H1.342c1.007 1.769 3.191 2.997 5.731 2.997 2.541 0 4.727-1.229 5.732-2.997H8.049l2.011-4.29c0.178-0.079 0.334-0.214 0.423-0.405l1.128-2.406c0.035-0.005 0.071-0.004 0.107-0.013l9.691-2.583h10.065v1.929h16.13l-4.698-1.601c-0.373-0.128-0.671-0.408-0.817-0.773-0.148-0.365-0.129-0.774 0.05-1.124l6.587-12.843V54.67c0-0.745 0.606-1.353 1.353-1.353 0.746 0 1.352 0.607 1.352 1.353v2.883l6.674 13.009c0.18 0.349 0.198 0.758 0.05 1.123-0.146 0.365-0.444 0.646-0.817 0.773l-4.697 1.601h16.054V72.13h9.899l9.691 2.583c0.035 0.009 0.071 0.008 0.107 0.013l1.127 2.406c0.089 0.191 0.243 0.326 0.423 0.405l2.011 4.29h-4.756c1.006 1.769 3.19 2.997 5.732 2.997 2.54 0 4.725-1.229 5.731-2.997H93.352zM64.858 37.893h4.954l0.852 0.38-0.525-2.369H72.2l-0.652 2.763 1.191 0.531v0.668l2.131-0.474v2.062l-2.131-0.503v0.635l-1.259 0.358 0.641 2.877H70.06l0.625-2.651-5.872 1.667L64.858 37.893zM29.461 41.519c-0.598 0-1.083-0.484-1.083-1.083 0-0.599 0.484-1.084 1.083-1.084s1.083 0.485 1.083 1.084C30.544 41.035 30.06 41.519 29.461 41.519zM20.871 70.553l-8.333 2.196 6.36-13.571 6.539 8.147L20.871 70.553zM27.381 70.439h-3.424l3.424-2.419V70.439zM27.381 67.05l-7.356-9.167 7.356-3.278V67.05zM46.697 16.15c0-1.867 1.518-3.384 3.384-3.384 1.866 0 3.384 1.518 3.384 3.384 0 1.866-1.519 3.383-3.384 3.383C48.214 19.534 46.697 18.017 46.697 16.15zM31.305 21.526c-1.827 0-3.315-1.487-3.315-3.314 0-1.828 1.488-3.315 3.315-3.315 1.828 0 3.315 1.487 3.315 3.315C34.62 20.039 33.132 21.526 31.305 21.526zM35.615 23.936l-2.626-1.485h4.158L35.615 23.936zM50.093 51.322c-7.425 0-13.445-6.02-13.445-13.446 0-7.425 6.02-13.445 13.445-13.445 7.427 0 13.445 6.02 13.445 13.445C63.538 45.302 57.52 51.322 50.093 51.322zM72.786 54.678l7.189 3.205-7.189 8.96V54.678zM72.786 70.439v-2.303l3.258 2.303H72.786zM79.13 70.553l-4.564-3.228 6.539-8.147 6.36 13.571L79.13 70.553z" fill="#1a6fe9" data-fill-palette-color="accent"></path></g></svg></g></g></svg></g><defs></defs></svg><rect width="395.52" height="247.2" fill="none" stroke="none" visibility="hidden"></rect></g></svg></g></svg>